<svg width="414" height="657" viewBox="0 0 414 657" fill="none" xmlns="http://www.w3.org/2000/svg">
<path fill-rule="evenodd" clip-rule="evenodd" d="M172.008 16.3094C226.376 30.2585 294.294 44.0481 361.8 12.5631C369.544 8.95172 373.326 6.03928 375.928 8.00134C378.321 9.81012 379.17 15.0648 378.813 22.1527C374.403 110.403 289.496 106.969 235.91 100.414L220.994 114.86L232.071 133.586C313.066 114.008 380.357 152.434 384.195 225.6C385.634 253.026 380.295 275.271 371.401 293.248C356.184 324.016 328.511 342.306 291.809 352.778C228.166 370.928 139.218 343.912 131.572 264.921L140.608 237.047L173.22 247.287L217.162 258.802L225.625 281.838L222.205 295.952L217.162 302.605L208.858 310.876C220.305 314.905 228.812 315.45 239.803 314.721C259.357 313.427 276.561 306.265 290.529 287.638C309.32 262.579 314.702 227.133 303.323 202.423C296.176 186.905 283.001 174.212 260.55 172.201C241.052 170.46 227.969 177.088 216.51 194.195L161.176 191.515L155.702 190.498L160.131 176.831L191.703 94.7429L172.008 16.3094Z" fill="url(#paint0_linear_38_5840)"/>
<path fill-rule="evenodd" clip-rule="evenodd" d="M81.1159 66.4709C96.1671 54.3 115.561 52.7426 132.494 60.272C178.195 80.5793 166.65 135.634 126.885 158.78C111.292 168.664 96.899 175.592 85.8889 182.515C33.4773 215.477 22.7256 236.33 24.1464 292.133L228.62 292.74C261.017 292.831 278.959 267.257 280.466 242.449C281.173 230.787 276.769 220.585 270.784 211.326C231.831 227.464 196.279 209.585 145.411 214.466C109.422 217.911 81.2881 236.073 78.9815 235.552C75.5616 234.773 79.289 227.673 95.4905 217.464C129.4 196.108 165.764 195.801 192.262 181.668C228.485 162.354 243.339 118.692 233.916 80.1747C222.758 34.569 178.023 9.77342 132.224 9.89605C119.891 9.92671 105.4 11.8029 93.4607 15.6167C46.3449 30.6632 16.2118 77.4462 26.0655 122.96C29.7745 140.116 41.3627 152.703 58.0747 156.149C85.4953 161.809 113.199 148.105 116.496 118.386C120.137 85.5826 97.7601 74.3743 81.1159 66.4709Z" fill="url(#paint1_linear_38_5840)"/>
<path d="M67.125 355H53.875C53.2917 370.833 52.5 384.083 51.5 394.75C50.5 405.333 48.5833 413.417 45.75 419C44.75 421 43.5833 422.667 42.25 424C41 425.25 39.7083 426.25 38.375 427C37.125 427.667 35.8333 428.125 34.5 428.375C33.1667 428.708 31.9583 428.875 30.875 428.875C29.125 428.875 27.5833 428.708 26.25 428.375C24.9167 428.125 23.6667 427.708 22.5 427.125L24.25 412.875C25.75 413.458 27.25 413.5 28.75 413C30.25 412.417 31.5 411.042 32.5 408.875C33.5 407.042 34.375 404.375 35.125 400.875C35.875 397.292 36.5 392.708 37 387.125C37.5833 381.542 38 374.917 38.25 367.25C38.5833 359.583 38.8333 350.667 39 340.5H82.875V428H67.125V355ZM94.2002 340.5H137.95V355H109.95V376.5H135.325V391H109.95V413.5H138.45V428H94.2002V340.5ZM200.536 355H179.786V428H164.036V355H143.286V340.5H200.536V355ZM94.25 555.625H83.125L81.625 540H36.625L35.125 555.625H24V525.5H31.625C32.125 524.583 32.875 522.5 33.875 519.25C34.9583 516 36.0417 511.417 37.125 505.5C38.2083 499.583 39.0833 492.25 39.75 483.5C40.5 474.75 40.8333 464.417 40.75 452.5H85.25V525.5H94.25V555.625ZM69.5 525.5V467H55.625C55.2083 481.75 54.2083 494.125 52.625 504.125C51.125 514.125 49.5833 521.25 48 525.5H69.5ZM137.021 520.25H116.396L111.271 540H95.6465L121.021 451.875H133.396L158.896 540H142.396L137.021 520.25ZM119.771 507.25H134.271L129.271 486.875L127.271 473.125H126.771L124.646 487L119.771 507.25ZM164.269 453.375C167.269 452.708 170.56 452.208 174.144 451.875C177.727 451.458 181.31 451.25 184.894 451.25C188.727 451.25 192.477 451.625 196.144 452.375C199.894 453.042 203.227 454.417 206.144 456.5C209.06 458.583 211.435 461.542 213.269 465.375C215.102 469.125 216.019 474.042 216.019 480.125C216.019 485.625 215.227 490.292 213.644 494.125C212.144 497.958 210.102 501.083 207.519 503.5C204.935 505.917 201.935 507.667 198.519 508.75C195.185 509.833 191.727 510.375 188.144 510.375C187.81 510.375 187.269 510.375 186.519 510.375C185.769 510.375 184.977 510.375 184.144 510.375C183.31 510.292 182.477 510.208 181.644 510.125C180.894 510.042 180.352 509.958 180.019 509.875V540H164.269V453.375ZM180.019 495.75C180.519 495.917 181.435 496.083 182.769 496.25C184.185 496.333 185.144 496.375 185.644 496.375C187.477 496.375 189.227 496.125 190.894 495.625C192.56 495.125 194.019 494.292 195.269 493.125C196.602 491.875 197.644 490.208 198.394 488.125C199.144 485.958 199.519 483.25 199.519 480C199.519 477.25 199.144 474.917 198.394 473C197.727 471.083 196.769 469.583 195.519 468.5C194.352 467.333 192.977 466.5 191.394 466C189.81 465.5 188.144 465.25 186.394 465.25C183.81 465.25 181.685 465.458 180.019 465.875V495.75ZM265.214 493.375L266.464 481H265.839L261.089 494.25L236.214 540H223.839V452.5H239.589V498.25L238.214 511H238.839L243.839 497.375L268.714 452.5H280.964V540H265.214V493.375ZM348.198 494.875L349.948 478.125H349.323L344.698 493.125L330.448 523.875H325.198L310.073 493L305.448 477.875H304.698L307.073 494.75V540H292.198V452.5H307.323L325.573 490.375L328.573 501.25H329.073L331.948 490.125L349.073 452.5H363.948V540H348.198V494.875ZM82.25 579H61.5V652H45.75V579H25V564.5H82.25V579ZM88.8291 564.5H132.579V579H104.579V600.5H129.954V615H104.579V637.5H133.079V652H88.8291V564.5ZM181.04 579H158.29V652H142.54V564.5H196.79V652H181.04V579ZM245.592 579H232.342C231.758 594.833 230.967 608.083 229.967 618.75C228.967 629.333 227.05 637.417 224.217 643C223.217 645 222.05 646.667 220.717 648C219.467 649.25 218.175 650.25 216.842 651C215.592 651.667 214.3 652.125 212.967 652.375C211.633 652.708 210.425 652.875 209.342 652.875C207.592 652.875 206.05 652.708 204.717 652.375C203.383 652.125 202.133 651.708 200.967 651.125L202.717 636.875C204.217 637.458 205.717 637.5 207.217 637C208.717 636.417 209.967 635.042 210.967 632.875C211.967 631.042 212.842 628.375 213.592 624.875C214.342 621.292 214.967 616.708 215.467 611.125C216.05 605.542 216.467 598.917 216.717 591.25C217.05 583.583 217.3 574.667 217.467 564.5H261.342V652H245.592V579ZM270.667 608.25C270.667 593.417 273.209 582.125 278.292 574.375C283.375 566.625 291.125 562.75 301.542 562.75C306.959 562.75 311.625 563.833 315.542 566C319.459 568.083 322.667 571.125 325.167 575.125C327.667 579.042 329.5 583.833 330.667 589.5C331.917 595.083 332.542 601.333 332.542 608.25C332.542 623.083 329.917 634.375 324.667 642.125C319.5 649.875 311.792 653.75 301.542 653.75C296.042 653.75 291.334 652.708 287.417 650.625C283.584 648.458 280.417 645.417 277.917 641.5C275.417 637.5 273.584 632.708 272.417 627.125C271.25 621.458 270.667 615.167 270.667 608.25ZM287.167 608.25C287.167 612.667 287.417 616.792 287.917 620.625C288.417 624.375 289.25 627.625 290.417 630.375C291.584 633.125 293.042 635.292 294.792 636.875C296.625 638.458 298.875 639.25 301.542 639.25C306.375 639.25 310 636.792 312.417 631.875C314.834 626.958 316.042 619.083 316.042 608.25C316.042 604 315.792 600 315.292 596.25C314.792 592.417 313.959 589.125 312.792 586.375C311.709 583.542 310.25 581.333 308.417 579.75C306.584 578.083 304.292 577.25 301.542 577.25C291.959 577.25 287.167 587.583 287.167 608.25Z" fill="url(#paint2_linear_38_5840)"/>
<defs>
<linearGradient id="paint0_linear_38_5840" x1="258" y1="309.1" x2="258" y2="358.336" gradientUnits="userSpaceOnUse">
<stop stop-color="#E13320"/>
<stop offset="0.651042" stop-color="#F19127"/>
<stop offset="1" stop-color="#FED832"/>
</linearGradient>
<linearGradient id="paint1_linear_38_5840" x1="151.937" y1="9.77539" x2="152.282" y2="292.854" gradientUnits="userSpaceOnUse">
<stop offset="0.015625" stop-color="#79C95B"/>
<stop offset="0.259147" stop-color="#58A03C"/>
<stop offset="0.760991" stop-color="#57A03C"/>
<stop offset="0.94273" stop-color="#C4C435"/>
<stop offset="1" stop-color="#FED832"/>
</linearGradient>
<linearGradient id="paint2_linear_38_5840" x1="197" y1="585" x2="197" y2="652" gradientUnits="userSpaceOnUse">
<stop stop-color="#E13320"/>
<stop offset="0.741135" stop-color="#F19127"/>
<stop offset="1" stop-color="#FED832"/>
</linearGradient>
</defs>
</svg>
